<?xml version="1.0" standalone="no"?><!DOCTYPE svg PUBLIC "-//W3C//DTD SVG 1.1//EN" "http://www.w3.org/Graphics/SVG/1.1/DTD/svg11.dtd"><svg t="1695644566094" class="icon" viewBox="0 0 1024 1024" version="1.1" xmlns="http://www.w3.org/2000/svg" p-id="13153" xmlns:xlink="http://www.w3.org/1999/xlink" width="22" height="22"><path d="M429.634783 723.478261c15.582609-115.756522 91.269565-182.53913 124.660869-209.252174h2.226087c4.452174-2.226087 8.904348-4.452174 13.356522-8.904348 97.947826-40.069565 166.956522-131.33913 166.956522-244.869565C739.06087 117.982609 618.852174 0 471.930435 0c-149.147826 0-267.130435 117.982609-267.130435 262.678261 0 111.304348 73.46087 207.026087 171.408696 244.869565-48.973913 13.356522-93.495652 33.391304-129.113044 55.652174C77.913043 665.6 44.521739 808.069565 44.521739 1006.191304c0 13.356522 17.808696 17.808696 33.391304 17.808696h516.452174l-46.747826-22.26087c-46.747826-22.26087-140.243478-131.33913-117.982608-278.260869zM750.191304 721.252174h35.617392v53.426087h-35.617392z" p-id="13154"></path><path d="M727.930435 516.452174c-138.017391 0-251.547826 111.304348-251.547826 249.321739 0 138.017391 113.530435 249.321739 251.547826 249.321739 138.017391 0 251.547826-111.304348 251.547826-249.321739 0-138.017391-109.078261-249.321739-251.547826-249.321739z m-66.782609 380.660869h-44.521739V779.130435l-20.034783 26.713043c0-6.678261-2.226087-15.582609-2.226087-26.713043-2.226087-17.808696-4.452174-31.165217-4.452174-40.069565 20.034783-28.93913 35.617391-66.782609 46.747827-111.304348l46.747826 11.130435c-6.678261 20.034783-13.356522 40.069565-22.26087 57.87826v200.347826z m204.8-82.365217h-57.878261c8.904348 8.904348 22.26087 20.034783 37.843478 35.617391 6.678261 8.904348 13.356522 13.356522 17.808696 17.808696l-35.617391 31.165217c-24.486957-22.26087-42.295652-42.295652-57.878261-57.87826l31.165217-24.486957h-77.913043l35.617391 24.486957c-4.452174 6.678261-13.356522 13.356522-22.260869 24.486956-15.582609 15.582609-26.713043 28.93913-35.617392 37.843478L670.052174 868.173913c11.130435-8.904348 26.713043-24.486957 48.973913-48.973913l4.452174-4.452174h-51.2v-42.295652h35.617391v-53.426087h-28.93913v-42.295652h28.93913v-48.973913h44.521739v48.973913h35.617392v-48.973913h44.521739v48.973913h28.93913v42.295652h-28.93913v53.426087H868.173913v42.295652z" p-id="13155"></path></svg>