<?xml version="1.0" standalone="no"?><!DOCTYPE svg PUBLIC "-//W3C//DTD SVG 1.1//EN" "http://www.w3.org/Graphics/SVG/1.1/DTD/svg11.dtd"><svg t="1693809162481" class="icon" viewBox="0 0 1024 1024" version="1.1" xmlns="http://www.w3.org/2000/svg" p-id="950" xmlns:xlink="http://www.w3.org/1999/xlink" width="22" height="22"><path d="M672 960c-6.8 0-13.56-2.17-19.2-6.4l-256-192c-8.06-6.04-12.8-15.53-12.8-25.6s4.74-19.56 12.8-25.6l256-192A32 32 0 1 1 704 544v96h160c17.67 0 32 14.33 32 32v128c0 17.67-14.33 32-32 32H704v96a32 32 0 0 1-17.69 28.62A31.902 31.902 0 0 1 672 960zM469.33 736L640 864v-64c0-17.67 14.33-32 32-32h160v-64H672c-17.67 0-32-14.33-32-32v-64L469.33 736zM927.98 448c-6.81 0-13.67-2.16-19.49-6.64L512 136.37 115.51 441.36c-14.01 10.78-34.1 8.16-44.88-5.85s-8.15-34.1 5.85-44.87l416-320c11.5-8.85 27.52-8.85 39.02 0l416 320c14.01 10.78 16.63 30.87 5.85 44.87-6.29 8.19-15.78 12.49-25.37 12.49zM344 720h-60c-5.52 0-10-4.48-10-10v-60c0-5.52 4.48-10 10-10h60c5.52 0 10 4.48 10 10v60c0 5.52-4.48 10-10 10zM344 592h-60c-5.52 0-10-4.48-10-10v-60c0-5.52 4.48-10 10-10h60c5.52 0 10 4.48 10 10v60c0 5.52-4.48 10-10 10z" p-id="951"></path><path d="M344 464h-60c-5.52 0-10-4.48-10-10v-60c0-5.52 4.48-10 10-10h60c5.52 0 10 4.48 10 10v60c0 5.52-4.48 10-10 10zM474.5 592h-60c-5.52 0-10-4.48-10-10v-60c0-5.52 4.48-10 10-10h60c5.52 0 10 4.48 10 10v60c0 5.52-4.48 10-10 10zM474.5 464h-60c-5.52 0-10-4.48-10-10v-60c0-5.52 4.48-10 10-10h60c5.52 0 10 4.48 10 10v60c0 5.52-4.48 10-10 10zM605 464h-60c-5.52 0-10-4.48-10-10v-60c0-5.52 4.48-10 10-10h60c5.52 0 10 4.48 10 10v60c0 5.52-4.48 10-10 10z" p-id="952"></path><path d="M491 960H192c-17.67 0-32-14.33-32-32V343c0-17.67 14.33-32 32-32s32 14.33 32 32v553h267c17.67 0 32 14.33 32 32s-14.33 32-32 32z" p-id="953"></path><path d="M832 574c-17.67 0-32-14.33-32-32V343c0-17.67 14.33-32 32-32s32 14.33 32 32v199c0 17.67-14.33 32-32 32z" p-id="954"></path></svg>