<?xml version="1.0" standalone="no"?><!DOCTYPE svg PUBLIC "-//W3C//DTD SVG 1.1//EN" "http://www.w3.org/Graphics/SVG/1.1/DTD/svg11.dtd"><svg t="1693809166735" class="icon" viewBox="0 0 1024 1024" version="1.1" xmlns="http://www.w3.org/2000/svg" p-id="1107" xmlns:xlink="http://www.w3.org/1999/xlink" width="22" height="22"><path d="M608 960c-4.88 0-9.78-1.11-14.31-3.38A32 32 0 0 1 576 928v-96H416c-17.67 0-32-14.33-32-32V672c0-17.67 14.33-32 32-32h160v-96a32 32 0 0 1 51.2-25.6l256 192c8.06 6.04 12.8 15.53 12.8 25.6s-4.74 19.56-12.8 25.6l-256 192c-5.65 4.23-12.4 6.4-19.2 6.4zM448 768h160c17.67 0 32 14.33 32 32v64l170.67-128L640 608v64c0 17.67-14.33 32-32 32H448v64zM927.98 448c-6.81 0-13.67-2.16-19.49-6.64L512 136.37 115.51 441.36c-14.01 10.78-34.1 8.16-44.88-5.85-10.78-14.01-8.15-34.1 5.85-44.87l416-320c11.5-8.85 27.52-8.85 39.02 0l416 320c14.01 10.78 16.63 30.87 5.85 44.87-6.29 8.19-15.78 12.49-25.37 12.49zM344 720h-60c-5.52 0-10-4.48-10-10v-60c0-5.52 4.48-10 10-10h60c5.52 0 10 4.48 10 10v60c0 5.52-4.48 10-10 10zM344 592h-60c-5.52 0-10-4.48-10-10v-60c0-5.52 4.48-10 10-10h60c5.52 0 10 4.48 10 10v60c0 5.52-4.48 10-10 10z" p-id="1108"></path><path d="M344 464h-60c-5.52 0-10-4.48-10-10v-60c0-5.52 4.48-10 10-10h60c5.52 0 10 4.48 10 10v60c0 5.52-4.48 10-10 10zM474.5 592h-60c-5.52 0-10-4.48-10-10v-60c0-5.52 4.48-10 10-10h60c5.52 0 10 4.48 10 10v60c0 5.52-4.48 10-10 10zM474.5 464h-60c-5.52 0-10-4.48-10-10v-60c0-5.52 4.48-10 10-10h60c5.52 0 10 4.48 10 10v60c0 5.52-4.48 10-10 10zM605 464h-60c-5.52 0-10-4.48-10-10v-60c0-5.52 4.48-10 10-10h60c5.52 0 10 4.48 10 10v60c0 5.52-4.48 10-10 10z" p-id="1109"></path><path d="M491 960H192c-17.67 0-32-14.33-32-32V343c0-17.67 14.33-32 32-32s32 14.33 32 32v553h267c17.67 0 32 14.33 32 32s-14.33 32-32 32z" p-id="1110"></path><path d="M832 574c-17.67 0-32-14.33-32-32V343c0-17.67 14.33-32 32-32s32 14.33 32 32v199c0 17.67-14.33 32-32 32z" p-id="1111"></path></svg>