<?xml version="1.0" standalone="no"?><!DOCTYPE svg PUBLIC "-//W3C//DTD SVG 1.1//EN" "http://www.w3.org/Graphics/SVG/1.1/DTD/svg11.dtd"><svg t="1695644320367" class="icon" viewBox="0 0 1024 1024" version="1.1" xmlns="http://www.w3.org/2000/svg" p-id="7980" xmlns:xlink="http://www.w3.org/1999/xlink" width="22" height="22"><path d="M88.120889 407.324444V142.791111l264.305778-0.113778 0.170666 264.533334-264.533333 0.056889zM352.597333 54.670222H88.007111A88.120889 88.120889 0 0 0 0 142.734222V407.324444a88.120889 88.120889 0 0 0 88.007111 88.007112h264.533333a88.120889 88.120889 0 0 0 88.007112-88.064V142.791111A88.120889 88.120889 0 0 0 352.597333 54.727111z m-264.533333 881.208889v-264.419555l264.362667-0.170667 0.170666 264.533333-264.533333 0.113778z m264.533333-352.540444H88.007111A88.120889 88.120889 0 0 0 0 671.402667v264.590222A88.120889 88.120889 0 0 0 88.007111 1024h264.533333a88.120889 88.120889 0 0 0 88.007112-88.007111v-264.533333a88.120889 88.120889 0 0 0-87.950223-88.007112v-0.056888z m396.458667-121.344L562.005333 275.057778l186.823111-187.050667 187.164445 186.88-186.936889 187.164445z m249.173333-249.230223L811.121778 25.656889a88.120889 88.120889 0 0 0-124.359111 0l-187.164445 187.164444c-16.497778 16.384-25.713778 38.684444-25.6 62.008889-0.170667 23.324444 9.102222 45.852444 25.6 62.350222l187.164445 187.164445a87.950222 87.950222 0 0 0 124.359111 0l187.164444-187.164445a88.007111 88.007111 0 0 0 0-124.416v0.056889z m-381.44 723.171556v-264.533333l264.305778-0.113778 0.170667 264.533333-264.533334 0.113778z m264.476445-352.597333h-264.647111a88.120889 88.120889 0 0 0-87.950223 88.007111v264.590222A88.120889 88.120889 0 0 0 616.618667 1024h264.647111a88.120889 88.120889 0 0 0 87.950222-88.007111v-264.533333a88.120889 88.120889 0 0 0-87.950222-88.007112v-0.056888z" fill="#6B7378" p-id="7981"></path></svg>