<?xml version="1.0" standalone="no"?><!DOCTYPE svg PUBLIC "-//W3C//DTD SVG 1.1//EN" "http://www.w3.org/Graphics/SVG/1.1/DTD/svg11.dtd"><svg t="1695644168971" class="icon" viewBox="0 0 1024 1024" version="1.1" xmlns="http://www.w3.org/2000/svg" p-id="4045" xmlns:xlink="http://www.w3.org/1999/xlink" width="22" height="22"><path d="M1014.272 241.664c0-15.872-4.608-30.72-13.824-44.032-9.216-13.312-21.504-22.528-36.864-28.16L540.16 15.36c-8.704-3.072-17.408-4.608-26.624-4.608s-17.92 1.536-26.624 4.608L63.488 169.472c-15.36 5.632-27.648 14.848-36.864 28.16S12.8 225.28 12.8 241.664v462.336c0 14.336 3.584 27.136 10.752 38.912 7.168 11.776 16.896 21.504 29.696 28.16l423.424 230.912c11.264 6.656 23.552 9.728 36.864 9.728 13.312 0 25.6-3.072 36.864-9.728l423.424-230.912c12.288-6.656 22.528-16.384 29.696-28.16 7.168-11.776 10.752-25.088 10.752-38.912V241.664z m-500.736 151.552L93.696 240.64l419.84-152.576 419.84 152.576-419.84 152.576z m423.424 310.784l-385.024 209.92V461.312L936.96 321.024v382.976z" p-id="4046"></path></svg>