<?xml version="1.0" standalone="no"?><!DOCTYPE svg PUBLIC "-//W3C//DTD SVG 1.1//EN" "http://www.w3.org/Graphics/SVG/1.1/DTD/svg11.dtd"><svg t="1695644370379" class="icon" viewBox="0 0 1024 1024" version="1.1" xmlns="http://www.w3.org/2000/svg" p-id="11033" xmlns:xlink="http://www.w3.org/1999/xlink" width="22" height="22"><path d="M483 508c-59.3 0-115.05-23.09-156.98-65.02C284.09 401.05 261 345.3 261 286s23.09-115.05 65.02-156.98C367.95 87.09 423.7 64 483 64s115.05 23.09 156.98 65.02C681.91 170.95 705 226.7 705 286s-23.09 115.05-65.02 156.98C598.05 484.91 542.3 508 483 508z m0-380c-87.12 0-158 70.88-158 158s70.88 158 158 158 158-70.88 158-158-70.88-158-158-158zM896.24 960H63.78l0.24-32.24c0.42-56.17 11.71-110.64 33.55-161.89 21.11-49.53 51.13-93.98 89.25-132.12 38.15-38.17 82.51-68.14 131.87-89.07C369.82 522.99 424.09 512 480.01 512s110.19 10.99 161.32 32.68c49.35 20.93 93.72 50.9 131.87 89.07 38.12 38.14 68.15 82.59 89.25 132.12 21.84 51.25 33.13 105.72 33.55 161.89l0.24 32.24z m-766.53-64h700.6c-17.55-179.17-168.45-320-350.3-320s-332.74 140.83-350.3 320zM960 672h-96c-17.6 0-32-14.4-32-32s14.4-32 32-32h96v64zM960 512H811c-17.6 0-32-14.4-32-32s14.4-32 32-32h149v64zM960 352H768c-17.6 0-32-14.4-32-32s14.4-32 32-32h192v64z" p-id="11034"></path><path d="M480 895.54L375.56 772.11l104.45-196.22 104.42 196.22L480 895.54z m-27.56-131.65L480 796.46l27.56-32.57L480 712.11l-27.56 51.78z" p-id="11035"></path></svg>