<?xml version="1.0" standalone="no"?><!DOCTYPE svg PUBLIC "-//W3C//DTD SVG 1.1//EN" "http://www.w3.org/Graphics/SVG/1.1/DTD/svg11.dtd"><svg t="1693809409638" class="icon" viewBox="0 0 1024 1024" version="1.1" xmlns="http://www.w3.org/2000/svg" p-id="6188" xmlns:xlink="http://www.w3.org/1999/xlink" width="22" height="22"><path d="M512.255896 256.824969h-150.466618c-30.451577 0-41.710984-10.747616-41.710984-40.687402-0.255896-37.360759-0.255896-74.465622 0-111.82638 0.255896-28.404412 11.515302-39.152028 40.687402-39.663819 6.141495 0 12.282989-0.511791 18.168588 0 25.07777 2.30306 42.478671-2.558956 59.367781-27.124934 37.360759-53.993973 120.01504-48.36427 153.79326 8.188659 9.468137 15.865528 19.448066 20.215753 35.825385 18.936275 13.562467-1.023582 27.38083-0.767687 40.943297 0 22.007022 0.767687 34.290011 12.282989 34.545907 34.034116 0.767687 40.943297 0.767687 82.14249 0 123.085787-0.255896 23.2865-13.306572 34.545907-38.384341 34.801802-50.923226 0.255896-101.846452 0.255896-152.769677 0.255896zM339.270465 536.774764h49.643748v21.495231h-49.643748zM417.06273 700.803848H332.873075c-7.676868 6.653286-15.865528 15.097841-24.565978 24.821874-2.558956 3.070747-5.885599 7.165077-9.979929 11.771198l73.442039 25.845456c7.932764-5.885599 15.353736-12.282989 22.774709-18.680379 2.558956-2.30306 5.885599-5.629703 9.724033-9.468138l10.747616-15.097841c0.255896-0.767687 1.535374-2.814852 3.582538-6.39739 2.047165-3.582539 3.326643-6.141495 3.326643-7.676868-0.255896-2.047165-1.791269-3.838434-4.862016-5.117912zM464.915208 622.243896c0.511791-0.767687 1.023582-1.791269 1.791269-3.582538v-25.845456c-1.023582-2.558956-2.558956-4.862017-5.117912-6.909182-0.767687-0.511791-1.791269-1.023582-3.582538-1.791269H414.759669V627.361809h43.246358c2.558956-1.023582 4.862017-2.558956 6.909181-5.117913zM339.270465 584.115451h49.643748V627.361809h-49.643748z" p-id="6189"></path><path d="M895.587515 197.968979c-0.255896-44.014044-25.589561-68.835918-69.8595-69.347709-18.168588-0.255896-36.337176 0-58.088303 0v86.492715c0 65.765171-39.407924 105.173095-104.917199 105.173095H361.533383c-65.765171 0-105.173095-39.152028-105.173095-104.661304v-87.004506H205.692958C152.210776 128.62127 128.156589 152.419561 128.156589 204.622265v744.144426c0 51.179121 24.310083 75.233309 75.489204 75.233309h614.149458c54.76166 0 77.792265-23.030605 77.792264-77.280473V366.86008c0-56.297034 0.255896-112.594067 0-168.891101zM513.023582 697.221309c-1.535374 2.30306-4.09433 3.582539-7.420972 3.582539h-53.993973c-3.326643 14.074258-12.282989 28.916204-26.869039 44.525836-10.235824 9.979929-17.912693 17.400901-22.774709 22.262917 15.097841 5.885599 30.963368 11.771198 47.852478 17.656797 10.747616 3.838434 23.030605 7.932764 36.593072 12.282989 9.468137 3.070747 14.58605 4.606121 14.841945 4.606121 1.791269 1.535374 3.070747 3.070747 4.09433 5.117913 1.023582 2.047165 1.535374 3.582539 1.535374 4.862016 0 2.30306-1.023582 4.606121-2.814852 6.909181-0.511791 0.767687-1.535374 1.535374-2.814852 2.558957h-13.050675c-25.589561-6.909181-51.435017-14.841945-77.024578-23.798292-9.468137-3.070747-20.98344-7.420973-35.313594-13.050676-20.727544 10.747616-43.502253 19.448066-68.835919 26.357248-16.633214 4.350225-41.199193 9.212242-73.697934 14.841945-2.047165 0.511791-3.326643 0.767687-3.838435 0.767687-3.582539 0-6.653286-1.279478-8.956346-4.09433-2.30306-2.558956-3.582539-5.629703-3.582538-9.468137 0-2.30306 0.511791-4.606121 1.791269-6.397391 1.279478-1.791269 3.326643-3.582539 6.141495-4.606121 19.192171 0 38.640237-2.047165 58.600094-6.39739 13.818363-3.070747 28.404412-7.420973 43.246357-12.538885 5.629703-2.047165 11.259407-4.350225 16.88911-6.909181l-56.041138-15.097841c-13.562467-5.373808-20.471649-8.188659-21.239335-8.956346-3.838434-3.070747-5.373808-7.420973-4.606121-12.538885l40.943297-38.896132H220.534903c-3.070747 0-5.629703-1.279478-7.165077-3.838434-1.791269-2.558956-2.558956-5.629703-2.558956-9.212242 0-3.838434 0.767687-6.909181 2.303061-9.468138 1.535374-2.30306 4.09433-3.582539 7.420972-3.582538h103.637721l15.097841-21.495231H253.033645c-6.141495-1.023582-11.515302-4.09433-15.353736-9.468138-1.279478-1.791269-2.558956-4.350225-3.838434-7.932763v-60.391364c1.023582-5.373808 4.09433-9.724033 9.468137-13.306571 1.791269-1.279478 4.350225-2.558956 7.932764-3.838434h62.694424v-21.495231H229.235354c-5.373808-2.047165-7.932764-5.117912-8.18866-8.700451-0.255896-3.582539-0.255896-6.39739-0.255895-8.700451 0-3.582539 1.535374-6.141495 4.350225-7.676868 1.023582-0.511791 2.30306-0.767687 4.350225-1.023582h272.017031c2.047165 0.767687 3.838434 2.30306 5.117912 4.862016 1.279478 2.558956 1.791269 5.117912 1.791269 8.18866 0 3.838434-1.023582 7.165077-2.814851 9.724033-2.047165 2.558956-4.606121 3.838434-8.18866 3.326643H414.759669v21.495231h60.391364c5.373808 1.791269 9.724033 5.117912 13.306571 9.979928 1.279478 1.791269 2.558956 4.09433 3.838434 7.165077v60.391364c-1.791269 5.373808-5.117912 9.724033-9.979928 13.306571-1.791269 1.279478-4.09433 2.558956-7.165077 3.838434h-105.684886l-17.145006 21.495231h153.281469c3.070747 0 5.629703 1.279478 7.165077 3.838434 1.791269 2.558956 2.558956 5.629703 2.558956 9.212242 0 4.09433-0.767687 7.420973-2.303061 9.724033z m22.774709-113.105858c7.165077-9.724033 16.121423-19.192171 26.869039-28.404413 3.582539-2.814852 8.188659-6.39739 14.074259-10.491719 8.444555-6.39739 16.121423-14.330154 23.2865-23.798292 2.30306-3.070747 5.373808-7.420973 8.956346-13.050676 0.511791-3.582539 2.047165-6.653286 4.862017-8.700451 2.814852-2.30306 5.885599-3.326643 9.212242-3.326642 5.117912 0 8.956346 2.558956 11.771198 7.932763 0 7.165077-3.582539 15.353736-10.747616 24.054187-3.582539 4.350225-7.165077 8.444555-10.747615 12.538885V627.361809c-3.070747 5.117912-6.909181 7.676868-11.259407 7.676868-3.582539 0-7.165077-1.791269-10.49172-5.117912-0.511791-0.511791-1.279478-1.279478-2.047165-2.558956v-60.391364l-32.498742 28.148517c-2.047165 3.326643-4.862017 5.117912-8.956346 5.117912-3.326643 0-6.39739-1.279478-9.212242-3.838434s-4.09433-5.373808-4.09433-8.444555c0.255896-1.023582 0.511791-2.30306 1.023582-3.838434z m243.100828 90.331149c-1.023582-0.767687-2.814852-1.279478-5.885599-1.791269h-170.426475c-2.558956 1.023582-4.862017 2.814852-6.909181 5.373808-0.511791 0.767687-1.023582 1.791269-1.79127 3.326643V765.545437c-1.023582 5.885599-4.606121 8.956346-11.259406 8.956346-3.070747 0-6.141495-0.767687-8.956347-2.558956s-4.862017-3.838434-5.629703-6.39739v-92.890106c3.326643-11.003511 9.724033-18.936275 19.448066-23.798291 1.535374-0.767687 3.582539-1.535374 6.39739-2.047165h185.780211c8.956346 1.023582 16.377319 5.629703 22.262918 14.074258 1.791269 2.558956 3.838434 6.653286 5.885599 11.771198V765.545437c-2.047165 5.885599-6.909181 8.956346-14.330154 8.956346-3.070747 0-5.629703-0.767687-7.676868-2.047165-2.047165-1.535374-3.326643-3.838434-3.838434-6.909181v-84.189655c0-2.814852-1.023582-5.117912-3.070747-6.909182z m-127.691909 113.105859c-28.404412 25.07777-60.391363 39.407924-95.960852 42.734566h-10.747616c-5.885599 0-8.700451-3.838434-8.700451-11.515302 0-3.070747 0.767687-5.629703 2.047165-7.932764 26.869039-7.420973 44.014044-12.538885 51.179122-15.097841 18.168588-6.39739 32.754638-13.818363 44.014044-22.007022 13.306572-9.724033 24.310083-22.774709 32.498742-38.384341l15.097841-40.943297c3.070747-5.117912 6.653286-7.676868 10.49172-7.676869 2.558956 0 5.373808 1.279478 7.932764 3.582539 0.767687 0.767687 1.791269 2.047165 3.326643 4.09433-4.606121 35.569489-21.751127 66.788754-51.179122 93.146001z m179.126926 40.17561c-3.070747 2.047165-6.909181 3.326643-11.259407 3.326643-4.09433 0-7.165077-1.023582-9.468138-2.814852l-101.590556-51.690912c-4.350225-1.791269-6.39739-5.373808-6.39739-9.979929 0-3.070747 1.023582-5.885599 3.326643-8.444555s4.862017-3.838434 8.188659-3.838434c1.023582 0 2.047165 0.255896 3.582539 0.767687 20.215753 7.420973 43.758149 18.424484 70.883083 32.754637 14.330154 7.676868 28.916204 15.353736 43.502253 23.286501 2.30306 3.070747 3.582539 5.885599 3.582539 8.70045 0.511791 3.070747-1.023582 5.885599-4.350225 7.932764z m4.094329-221.605596c-4.862017 14.074258-13.562467 21.239335-26.613143 21.239336h-125.132952c-9.724033-1.023582-17.400901-5.629703-23.030605-14.074259-1.791269-2.558956-3.326643-6.653286-5.117912-11.771198v-88.53988c2.047165-2.814852 4.09433-4.862017 6.141495-5.885599 1.791269-1.023582 4.09433-1.535374 6.39739-1.535374 3.070747 0 6.39739 1.279478 9.724033 4.09433 1.023582 0.767687 2.047165 1.791269 3.582539 3.582539v40.943297c17.400901-3.070747 36.848967-7.676868 57.832407-13.306572 12.538885-3.326643 26.869039-7.676868 43.502253-13.306571 5.629703-1.791269 11.515302-3.838434 17.145006-5.629704 1.791269-0.511791 3.326643-0.767687 3.838434-0.767687 3.582539 0 6.653286 1.279478 8.956346 3.838435 2.30306 2.558956 3.582539 5.885599 3.582539 9.468137 0 5.117912-2.558956 8.700451-7.932764 11.259407-32.498742 11.259407-67.044649 20.215753-103.637721 26.613143-6.39739 1.023582-14.330154 2.047165-23.798292 3.582538v17.145006c0 2.814852 1.023582 5.117912 2.814852 6.909182 1.023582 0.767687 2.814852 1.279478 5.885599 1.791269h114.385337c4.350225 0 7.420973-2.558956 8.956346-7.676868 0.767687-2.558956 2.047165-6.653286 3.838434-11.771198-0.511791-1.791269-0.767687-3.326643-0.767687-4.350226 0-4.862017 1.535374-9.212242 4.606121-13.050676 3.070747-3.838434 6.39739-5.885599 9.979929-5.885599 4.350225 0 7.676868 2.814852 9.979928 8.18866-1.279478 19.959857-3.326643 33.010533-5.117912 38.896132z" p-id="6190"></path><path d="M260.454618 588.465676c-0.511791 1.023582-0.767687 2.30306-1.023582 4.350226v25.845456c1.535374 2.814852 2.047165 5.117912 2.047164 6.39739l6.397391 2.047165h45.293522V583.859555h-45.293522c-3.326643 0.255896-5.885599 1.791269-7.420973 4.606121z" p-id="6191"></path></svg>