<?xml version="1.0" standalone="no"?><!DOCTYPE svg PUBLIC "-//W3C//DTD SVG 1.1//EN" "http://www.w3.org/Graphics/SVG/1.1/DTD/svg11.dtd"><svg t="1667543534516" class="icon" viewBox="0 0 1024 1024" version="1.1" xmlns="http://www.w3.org/2000/svg" p-id="2771" xmlns:xlink="http://www.w3.org/1999/xlink" width="48" height="48"><path d="M768 128v768H256V128h512m32-64H224c-17.6 0-32 14.4-32 32v832c0 17.6 14.4 32 32 32h576c17.6 0 32-14.4 32-32V96c0-17.6-14.4-32-32-32zM704 192H320v128h384V192zM384 448h-64v64h64v-64z m160 0h-64v64h64v-64z m160 0h-64v64h64v-64zM384 608h-64v64h64v-64z m160 0h-64v64h64v-64z m160 0h-64v64h64v-64zM384 768h-64v64h64v-64z m160 0h-64v64h64v-64z m160 0h-64v64h64v-64z" p-id="2772"></path></svg>