<?xml version="1.0" standalone="no"?><!DOCTYPE svg PUBLIC "-//W3C//DTD SVG 1.1//EN" "http://www.w3.org/Graphics/SVG/1.1/DTD/svg11.dtd"><svg t="1693809296950" class="icon" viewBox="0 0 1024 1024" version="1.1" xmlns="http://www.w3.org/2000/svg" p-id="3147" xmlns:xlink="http://www.w3.org/1999/xlink" width="22" height="22"><path d="M277.2 432.5h63.9v63.9h-63.9zM392.5 432.5h63.9v63.9h-63.9zM277.2 549.8h63.9v63.9h-63.9zM392.5 549.8h63.9v63.9h-63.9zM277.2 670.7h63.9v63.9h-63.9zM392.5 673h63.9v63.9h-63.9z" p-id="3148"></path><path d="M958.9 409.3c-8 10.4-22.4 12.8-33.5 5.6l-57.5-42.3v147.7c-1.6 13.6-13.6 22.4-26.3 21.6-11.2-1.6-20-10.4-21.6-21.6V337.5L516.7 117.1l-305 221.1v573.2h312.1c13.6 0 24 10.4 24 23.9 0 13.6-10.4 23.9-24 23.9H188.6c-12.8-0.8-23.2-11.2-23.2-23.9v-562L107.9 414c-7.2 4.8-16 5.6-23.9 2.4-12-5.6-17.6-19.2-12.8-31.1 1.6-4 4.8-7.2 8-9.6L500.7 70c10.4-5.6 23.2-5.6 32.7 0l419.9 305.8c5.6 4 8.8 9.6 9.6 16 1.6 6.3 0 11.9-4 17.5z m0 0" p-id="3149"></path><path d="M738.4 700.9l32.2 32.2 49.7 49.7c3.6 3.6 7.6 7.1 10.9 11l-2.9-3.7c1 1.3 1.8 2.7 2.5 4.2l-1.8-4.4c0.7 1.7 1.2 3.4 1.4 5.2l-0.7-4.9c0.2 1.8 0.2 3.6 0 5.3l0.7-4.9c-0.2 1.6-0.7 3.1-1.3 4.6l1.8-4.4c-0.7 1.5-1.5 2.9-2.5 4.2l2.9-3.7c-3.1 3.8-6.9 7.1-10.3 10.5l-82.7 82.7c-7 7-7 18.8 0 25.8s18.8 7 25.8 0l32.2-32.2 49.8-49.8 9.5-9.5c2.5-2.5 4.8-5.5 6.4-8.6 2.6-5.2 3.5-9.2 4.2-14.8 0.9-7.3-1.3-14.8-4.6-21.2-1.9-3.7-4.8-6.8-7.7-9.7l-41.2-41.2-44.9-44.9-3.6-3.6c-7-7-18.8-7-25.8 0-7.1 7.3-7.1 19.1 0 26.1z m0 0" p-id="3150"></path><path d="M584.1 811.1h258c11.7 0 21.5-8.3 21.5-18.3 0-9.9-9.8-18.3-21.5-18.3h-258c-11.7 0-21.5 8.3-21.5 18.3s9.8 18.3 21.5 18.3z m0 0M640.5 686.6l-32.2-32.2-49.7-49.7c-3.6-3.6-7.6-7.1-10.9-11l2.9 3.7c-1-1.3-1.8-2.7-2.5-4.2l1.8 4.4c-0.7-1.7-1.2-3.4-1.4-5.2l0.7 4.9c-0.2-1.8-0.2-3.6 0-5.3l-0.7 4.9c0.2-1.6 0.7-3.1 1.3-4.6l-1.8 4.4c0.7-1.5 1.5-2.9 2.5-4.2l-2.9 3.7c3.1-3.8 6.9-7.1 10.3-10.5l82.7-82.7c7-7 7-18.8 0-25.8s-18.8-7-25.8 0l-32.2 32.2-49.8 49.8-9.5 9.5c-2.5 2.5-4.8 5.5-6.4 8.6-2.6 5.2-3.5 9.2-4.2 14.8-0.9 7.3 1.3 14.8 4.6 21.2 1.9 3.7 4.8 6.8 7.7 9.7l41.2 41.2 44.9 44.9 3.6 3.6c7 7 18.8 7 25.8 0 7.1-7.3 7.1-19 0-26.1z m0 0" p-id="3151"></path><path d="M794.8 576.5h-258c-11.7 0-21.5 8.3-21.5 18.3 0 9.9 9.8 18.3 21.5 18.3h258c11.7 0 21.5-8.3 21.5-18.3 0.1-10-9.7-18.3-21.5-18.3z m0 0" p-id="3152"></path></svg>