<?xml version="1.0" standalone="no"?><!DOCTYPE svg PUBLIC "-//W3C//DTD SVG 1.1//EN" "http://www.w3.org/Graphics/SVG/1.1/DTD/svg11.dtd"><svg t="1667464443263" class="icon" viewBox="0 0 1024 1024" version="1.1" xmlns="http://www.w3.org/2000/svg" p-id="2569" xmlns:xlink="http://www.w3.org/1999/xlink" width="48" height="48"><path d="M223.141126 173.563988c-61.040215 0-110.700241 49.660027-110.700241 110.705358s49.660027 110.705358 110.700241 110.705358c61.045331 0 110.705358-49.660027 110.705358-110.705358S284.187481 173.563988 223.141126 173.563988zM223.141126 332.490603c-26.584472 0-48.216141-21.63167-48.216141-48.221258 0-26.589588 21.63167-48.221258 48.216141-48.221258 26.589588 0 48.221258 21.63167 48.221258 48.221258C271.362384 310.859957 249.730715 332.490603 223.141126 332.490603z" p-id="2570"></path><path d="M901.18586 483.861126c-37.089733-183.807283-161.306826-279.374872-340.603375-262.243703-187.143261 17.874089-238.420111 156.710135-240.510726 162.613588-0.274246 0.76748-0.5137 1.546216-0.727571 2.334161-38.935778 145.039327 59.005882 211.821313 117.52467 251.717975 15.290241 10.42442 31.105439 21.204951 36.235272 28.160363 22.577205 30.596855 17.396205 54.892191 10.830673 85.651752-3.036149 14.207583-6.16849 28.898167-6.514367 44.636616-1.108241 50.930973 16.663518 93.202729 51.394531 122.248252 38.534642 32.223912 87.640036 41.025369 123.784234 41.025369 13.856589 0 25.816992-1.296529 34.537608-3.060709C911.772986 911.321708 928.350546 618.516965 901.18586 483.861126zM831.02287 730.758306c-26.777877 93.823875-79.371722 149.325957-156.297742 164.947749-25.511024 5.176906-75.217099 0.930185-105.824187-24.662703-20.218484-16.908088-29.706579-40.771589-29.004591-72.954569 0.213871-9.828856 2.608407-21.061688 5.146207-32.95046 7.43432-34.847669 17.619286-82.570577-21.657252-135.794779-11.43647-15.498996-29.92045-28.099988-51.317783-42.688241-55.888891-38.1069-119.202892-81.279165-92.76066-182.440146 4.129041-10.32209 46.50722-106.95801 187.214892-120.398114 103.185081-9.895371 234.383168 18.98233 273.41002 212.400504C851.01725 551.167045 855.339696 645.559878 831.02287 730.758306z" p-id="2571"></path><path d="M377.349277 212.037231c5.985318 9.213849 16.002462 14.228049 26.228361 14.228049 5.832845 0 11.736299-1.632173 16.98893-5.048993 14.471596-9.402137 18.580171-28.750811 9.178033-43.217291L391.308197 118.839619c-9.397021-14.471596-28.761044-18.590404-43.217291-9.178033-14.471596 9.402137-18.580171 28.750811-9.178033 43.217291L377.349277 212.037231z" p-id="2572"></path><path d="M489.463728 163.505911c3.330862 14.461363 16.190751 24.245194 30.423917 24.245194 2.318812 0 4.673439-0.258896 7.027044-0.798179 16.815991-3.870144 27.312042-20.640086 23.447015-37.45096l-13.947663-60.633962c-3.865028-16.815991-20.640086-27.265994-37.45096-23.447015-16.815991 3.870144-27.312042 20.640086-23.447015 37.45096L489.463728 163.505911z" p-id="2573"></path><path d="M634.742509 186.861852c2.486634 0.604774 4.968152 0.890276 7.413853 0.890276 14.075577 0 26.853601-9.580193 30.331819-23.858384l14.721283-60.500932c4.077875-16.764825-6.203282-33.667797-22.969131-37.745672-16.815991-4.093225-33.667797 6.208399-37.745672 22.969131l-14.721283 60.500932C607.694479 165.881005 617.97666 182.783976 634.742509 186.861852z" p-id="2574"></path><path d="M744.883001 209.464639c5.486968 3.889587 11.792581 5.761214 18.041912 5.761214 9.783831 0 19.424398-4.586458 25.511024-13.180184l34.109866-48.118927c9.982352-14.075577 6.656607-33.576723-7.41897-43.552935-14.08581-9.982352-33.58184-6.671956-43.552935 7.41897L737.464031 165.911704C727.482703 179.986257 730.808448 199.487404 744.883001 209.464639z" p-id="2575"></path><path d="M498.002195 369.969193c-17.252943 0-31.242562 13.988596-31.242562 31.242562l0 30.484292c0 17.252943 13.988596 31.242562 31.242562 31.242562 17.252943 0 31.242562-13.988596 31.242562-31.242562l0-30.484292C529.243733 383.958812 515.255137 369.969193 498.002195 369.969193z" p-id="2576"></path><path d="M710.781322 369.969193c-17.252943 0-31.242562 13.988596-31.242562 31.242562l0 30.484292c0 17.252943 13.988596 31.242562 31.242562 31.242562s31.242562-13.988596 31.242562-31.242562l0-30.484292C742.023884 383.958812 728.035288 369.969193 710.781322 369.969193z" p-id="2577"></path><path d="M681.207773 479.82623c-14.543228-9.311063-33.861202-5.064342-43.161009 9.458419-0.121773 0.198521-13.383822 19.455097-33.977859 19.455097-20.014846 0-32.462343-18.143219-33.286104-19.384489-9.18315-14.416338-28.28316-18.804275-42.845831-9.758248-14.654768 9.107425-19.150152 28.374234-10.047844 43.029002 11.217483 18.047028 41.992393 48.597835 86.180801 48.597835 43.970444 0 75.120908-30.321586 86.597287-48.236608C699.972139 508.454244 695.735651 489.131153 681.207773 479.82623z" p-id="2578"></path></svg>