<?xml version="1.0" standalone="no"?><!DOCTYPE svg PUBLIC "-//W3C//DTD SVG 1.1//EN" "http://www.w3.org/Graphics/SVG/1.1/DTD/svg11.dtd"><svg t="1695644382009" class="icon" viewBox="0 0 1024 1024" version="1.1" xmlns="http://www.w3.org/2000/svg" p-id="12131" xmlns:xlink="http://www.w3.org/1999/xlink" width="22" height="22"><path d="M290.730667 128h447.573333c36.864 0 80.170667 29.866667 93.994667 62.378667l21.418666 156.714666a42.666667 42.666667 0 0 0 84.565334-11.52l-22.101334-161.706666-2.090666-8.533334C889.984 97.578667 812.757333 42.666667 738.304 42.666667H290.688c-75.093333 0-152.234667 54.869333-175.914667 122.965333l-1.792 6.954667-27.093333 161.706666a42.666667 42.666667 0 0 0 84.138667 14.08l26.453333-157.653333C209.749333 158.037333 253.098667 128 290.730667 128z" p-id="12132"></path><path d="M341.333333 341.333333c0 48.213333-31.402667 85.333333-65.109333 85.333334h-40.448C202.069333 426.666667 170.666667 389.546667 170.666667 341.333333a42.666667 42.666667 0 1 0-85.333334 0c0 92.544 66.176 170.666667 150.442667 170.666667h40.448C360.490667 512 426.666667 433.834667 426.666667 341.333333a42.666667 42.666667 0 1 0-85.333334 0z" p-id="12133"></path><path d="M597.333333 341.333333c0 48.213333-31.402667 85.333333-65.109333 85.333334h-40.448C458.069333 426.666667 426.666667 389.546667 426.666667 341.333333a42.666667 42.666667 0 1 0-85.333334 0c0 92.544 66.176 170.666667 150.442667 170.666667h40.448C616.490667 512 682.666667 433.834667 682.666667 341.333333a42.666667 42.666667 0 0 0-85.333334 0z" p-id="12134"></path><path d="M853.333333 341.333333c0 48.213333-31.402667 85.333333-65.109333 85.333334h-40.448C714.069333 426.666667 682.666667 389.546667 682.666667 341.333333a42.666667 42.666667 0 0 0-85.333334 0c0 92.544 66.176 170.666667 150.442667 170.666667h40.448C872.490667 512 938.666667 433.834667 938.666667 341.333333a42.666667 42.666667 0 0 0-85.333334 0zM341.333333 896v-213.333333c0-51.626667 41.258667-85.333333 93.866667-85.333334h153.6c52.778667 0 93.866667 33.706667 93.866667 85.333334v213.333333h128v-298.666667a42.666667 42.666667 0 0 1 85.333333 0v298.666667h42.666667a42.666667 42.666667 0 0 1 0 85.333333H85.333333a42.666667 42.666667 0 0 1 0-85.333333h42.666667v-298.666667a42.666667 42.666667 0 0 1 85.333333 0v298.666667h128z m85.333334 0h170.666666v-213.333333c0-0.341333 0.426667 0-8.533333 0h-153.6c-8.874667 0-8.533333-0.256-8.533333 0v213.333333z" p-id="12135"></path></svg>